<mxfile host="app.diagrams.net" modified="2022-12-06T13:31:36.968Z" agent="5.0 (Macintosh; Intel Mac OS X 10_14_6) AppleWebKit/537.36 (KHTML, like Gecko) Chrome/107.0.0.0 Safari/537.36" version="20.6.0" etag="Il0Q1MOk-OF6bRQZXH4C" type="github">
  <diagram id="9PH4TELa1Uke-sMNyPmK" name="第 1 页">
    <mxGraphModel dx="1031" dy="663" grid="1" gridSize="10" guides="1" tooltips="1" connect="1" arrows="1" fold="1" page="1" pageScale="1" pageWidth="827" pageHeight="1169" math="0" shadow="0">
      <root>
        <mxCell id="0" />
        <mxCell id="1" parent="0" />
        <mxCell id="kBixg6GuGJOfSXqgUfik-19" value="" style="rounded=0;whiteSpace=wrap;html=1;" vertex="1" parent="1">
          <mxGeometry x="416" y="150" width="282" height="80" as="geometry" />
        </mxCell>
        <mxCell id="kBixg6GuGJOfSXqgUfik-11" style="edgeStyle=orthogonalEdgeStyle;rounded=0;orthogonalLoop=1;jettySize=auto;html=1;exitX=0.5;exitY=0;exitDx=0;exitDy=0;entryX=0.5;entryY=1;entryDx=0;entryDy=0;" edge="1" parent="1" source="kBixg6GuGJOfSXqgUfik-1" target="kBixg6GuGJOfSXqgUfik-6">
          <mxGeometry relative="1" as="geometry" />
        </mxCell>
        <mxCell id="kBixg6GuGJOfSXqgUfik-1" value="" style="rounded=0;whiteSpace=wrap;html=1;" vertex="1" parent="1">
          <mxGeometry x="128" y="430" width="570" height="80" as="geometry" />
        </mxCell>
        <mxCell id="kBixg6GuGJOfSXqgUfik-2" value="" style="rounded=0;whiteSpace=wrap;html=1;" vertex="1" parent="1">
          <mxGeometry x="138" y="440" width="120" height="60" as="geometry" />
        </mxCell>
        <mxCell id="kBixg6GuGJOfSXqgUfik-3" value="" style="rounded=0;whiteSpace=wrap;html=1;" vertex="1" parent="1">
          <mxGeometry x="288" y="440" width="120" height="60" as="geometry" />
        </mxCell>
        <mxCell id="kBixg6GuGJOfSXqgUfik-4" value="" style="rounded=0;whiteSpace=wrap;html=1;" vertex="1" parent="1">
          <mxGeometry x="428" y="440" width="120" height="60" as="geometry" />
        </mxCell>
        <mxCell id="kBixg6GuGJOfSXqgUfik-5" value="" style="rounded=0;whiteSpace=wrap;html=1;" vertex="1" parent="1">
          <mxGeometry x="568" y="440" width="120" height="60" as="geometry" />
        </mxCell>
        <mxCell id="kBixg6GuGJOfSXqgUfik-20" value="" style="edgeStyle=orthogonalEdgeStyle;rounded=0;orthogonalLoop=1;jettySize=auto;html=1;" edge="1" parent="1" source="kBixg6GuGJOfSXqgUfik-6">
          <mxGeometry relative="1" as="geometry">
            <mxPoint x="413" y="230" as="targetPoint" />
          </mxGeometry>
        </mxCell>
        <mxCell id="kBixg6GuGJOfSXqgUfik-6" value="" style="rounded=0;whiteSpace=wrap;html=1;" vertex="1" parent="1">
          <mxGeometry x="128" y="300" width="570" height="80" as="geometry" />
        </mxCell>
        <mxCell id="kBixg6GuGJOfSXqgUfik-7" value="" style="rounded=0;whiteSpace=wrap;html=1;" vertex="1" parent="1">
          <mxGeometry x="138" y="310" width="120" height="60" as="geometry" />
        </mxCell>
        <mxCell id="kBixg6GuGJOfSXqgUfik-8" value="" style="rounded=0;whiteSpace=wrap;html=1;" vertex="1" parent="1">
          <mxGeometry x="288" y="310" width="120" height="60" as="geometry" />
        </mxCell>
        <mxCell id="kBixg6GuGJOfSXqgUfik-9" value="" style="rounded=0;whiteSpace=wrap;html=1;" vertex="1" parent="1">
          <mxGeometry x="428" y="310" width="120" height="60" as="geometry" />
        </mxCell>
        <mxCell id="kBixg6GuGJOfSXqgUfik-10" value="" style="rounded=0;whiteSpace=wrap;html=1;" vertex="1" parent="1">
          <mxGeometry x="568" y="310" width="120" height="60" as="geometry" />
        </mxCell>
        <mxCell id="kBixg6GuGJOfSXqgUfik-12" value="组件&lt;br&gt;池" style="text;html=1;strokeColor=none;fillColor=none;align=center;verticalAlign=middle;whiteSpace=wrap;rounded=0;" vertex="1" parent="1">
          <mxGeometry x="100" y="432.5" width="20" height="75" as="geometry" />
        </mxCell>
        <mxCell id="kBixg6GuGJOfSXqgUfik-13" value="&lt;br&gt;组件编排" style="text;html=1;strokeColor=none;fillColor=none;align=center;verticalAlign=middle;whiteSpace=wrap;rounded=0;" vertex="1" parent="1">
          <mxGeometry x="100" y="295" width="20" height="75" as="geometry" />
        </mxCell>
        <mxCell id="kBixg6GuGJOfSXqgUfik-14" value="" style="rounded=0;whiteSpace=wrap;html=1;" vertex="1" parent="1">
          <mxGeometry x="128" y="150" width="282" height="80" as="geometry" />
        </mxCell>
        <mxCell id="kBixg6GuGJOfSXqgUfik-16" value="" style="rounded=0;whiteSpace=wrap;html=1;" vertex="1" parent="1">
          <mxGeometry x="138" y="167.5" width="110" height="45" as="geometry" />
        </mxCell>
        <mxCell id="kBixg6GuGJOfSXqgUfik-21" value="触点" style="text;html=1;strokeColor=none;fillColor=none;align=center;verticalAlign=middle;whiteSpace=wrap;rounded=0;" vertex="1" parent="1">
          <mxGeometry x="100" y="150" width="20" height="75" as="geometry" />
        </mxCell>
        <mxCell id="kBixg6GuGJOfSXqgUfik-22" value="" style="rounded=0;whiteSpace=wrap;html=1;" vertex="1" parent="1">
          <mxGeometry x="288" y="167.5" width="110" height="45" as="geometry" />
        </mxCell>
        <mxCell id="kBixg6GuGJOfSXqgUfik-24" value="" style="rounded=0;whiteSpace=wrap;html=1;" vertex="1" parent="1">
          <mxGeometry x="428" y="167.5" width="110" height="45" as="geometry" />
        </mxCell>
        <mxCell id="kBixg6GuGJOfSXqgUfik-25" value="" style="rounded=0;whiteSpace=wrap;html=1;" vertex="1" parent="1">
          <mxGeometry x="573" y="167.5" width="110" height="45" as="geometry" />
        </mxCell>
      </root>
    </mxGraphModel>
  </diagram>
</mxfile>
